<mxfile host="app.diagrams.net" modified="2023-11-16T14:39:32.537Z" agent="Mozilla/5.0 (Windows NT 10.0; Win64; x64) AppleWebKit/537.36 (KHTML, like Gecko) Chrome/116.0.0.0 Safari/537.36" etag="cHsoaQ9_xAlm6jJY5iTE" version="22.1.2" type="google">
  <diagram name="Page-1" id="zcpRE0-qbtH1i6D862p0">
    <mxGraphModel grid="1" page="1" gridSize="10" guides="1" tooltips="1" connect="1" arrows="1" fold="1" pageScale="1" pageWidth="850" pageHeight="1100" math="0" shadow="0">
      <root>
        <mxCell id="0" />
        <mxCell id="1" parent="0" />
        <mxCell id="QJdqA2-p36ViYTnOIbX0-12" style="edgeStyle=orthogonalEdgeStyle;rounded=0;orthogonalLoop=1;jettySize=auto;html=1;entryX=0;entryY=0.5;entryDx=0;entryDy=0;" edge="1" parent="1">
          <mxGeometry relative="1" as="geometry">
            <Array as="points">
              <mxPoint x="190" y="220" />
              <mxPoint x="190" y="220" />
            </Array>
            <mxPoint x="110" y="220" as="sourcePoint" />
          </mxGeometry>
        </mxCell>
        <mxCell id="J0o92Uok0DCxpGH_QRl3-6" value="Add product to cart" style="ellipse;whiteSpace=wrap;html=1;" vertex="1" parent="1">
          <mxGeometry x="740" y="2690" width="120" height="80" as="geometry" />
        </mxCell>
        <mxCell id="J0o92Uok0DCxpGH_QRl3-9" value="Vendors" style="shape=umlActor;verticalLabelPosition=bottom;verticalAlign=top;html=1;outlineConnect=0;" vertex="1" parent="1">
          <mxGeometry x="120" y="2700" width="30" height="60" as="geometry" />
        </mxCell>
        <mxCell id="J0o92Uok0DCxpGH_QRl3-12" value="Administrator" style="shape=umlActor;verticalLabelPosition=bottom;verticalAlign=top;html=1;outlineConnect=0;" vertex="1" parent="1">
          <mxGeometry x="120" y="2210" width="30" height="60" as="geometry" />
        </mxCell>
        <mxCell id="J0o92Uok0DCxpGH_QRl3-13" value="Add to Favourite" style="ellipse;whiteSpace=wrap;html=1;" vertex="1" parent="1">
          <mxGeometry x="740" y="2790" width="120" height="80" as="geometry" />
        </mxCell>
        <mxCell id="J0o92Uok0DCxpGH_QRl3-14" style="rounded=0;orthogonalLoop=1;jettySize=auto;html=1;exitX=1;exitY=0.5;exitDx=0;exitDy=0;entryX=0;entryY=0.5;entryDx=0;entryDy=0;dashed=1;" edge="1" parent="1" source="J0o92Uok0DCxpGH_QRl3-15" target="J0o92Uok0DCxpGH_QRl3-45">
          <mxGeometry relative="1" as="geometry" />
        </mxCell>
        <mxCell id="J0o92Uok0DCxpGH_QRl3-89" value="&amp;lt;&amp;lt;Include&amp;gt;&amp;gt;" style="edgeLabel;html=1;align=center;verticalAlign=middle;resizable=0;points=[];" connectable="0" vertex="1" parent="J0o92Uok0DCxpGH_QRl3-14">
          <mxGeometry x="-0.1407" relative="1" as="geometry">
            <mxPoint as="offset" />
          </mxGeometry>
        </mxCell>
        <mxCell id="DwWwWQou5JMYpuXKU6Zy-6" style="rounded=0;orthogonalLoop=1;jettySize=auto;html=1;exitX=1;exitY=1;exitDx=0;exitDy=0;entryX=0;entryY=0;entryDx=0;entryDy=0;dashed=1;" edge="1" parent="1" source="J0o92Uok0DCxpGH_QRl3-15" target="DwWwWQou5JMYpuXKU6Zy-1">
          <mxGeometry relative="1" as="geometry" />
        </mxCell>
        <mxCell id="DwWwWQou5JMYpuXKU6Zy-7" value="&amp;lt;&amp;lt;Extend&amp;gt;&amp;gt;" style="edgeLabel;html=1;align=center;verticalAlign=middle;resizable=0;points=[];" connectable="0" vertex="1" parent="DwWwWQou5JMYpuXKU6Zy-6">
          <mxGeometry x="-0.0327" y="4" relative="1" as="geometry">
            <mxPoint as="offset" />
          </mxGeometry>
        </mxCell>
        <mxCell id="J0o92Uok0DCxpGH_QRl3-15" value="Checkout" style="ellipse;whiteSpace=wrap;html=1;" vertex="1" parent="1">
          <mxGeometry x="740" y="2460" width="120" height="80" as="geometry" />
        </mxCell>
        <mxCell id="J0o92Uok0DCxpGH_QRl3-18" value="Add product for sale" style="ellipse;whiteSpace=wrap;html=1;" vertex="1" parent="1">
          <mxGeometry x="250" y="2800" width="120" height="80" as="geometry" />
        </mxCell>
        <mxCell id="J0o92Uok0DCxpGH_QRl3-19" value="View on sale products" style="ellipse;whiteSpace=wrap;html=1;" vertex="1" parent="1">
          <mxGeometry x="280" y="2570" width="130" height="80" as="geometry" />
        </mxCell>
        <mxCell id="J0o92Uok0DCxpGH_QRl3-20" value="Register" style="ellipse;whiteSpace=wrap;html=1;" vertex="1" parent="1">
          <mxGeometry x="440" y="2260" width="120" height="80" as="geometry" />
        </mxCell>
        <mxCell id="J0o92Uok0DCxpGH_QRl3-21" style="rounded=0;orthogonalLoop=1;jettySize=auto;html=1;exitX=1;exitY=0.5;exitDx=0;exitDy=0;entryX=0;entryY=0.5;entryDx=0;entryDy=0;dashed=1;" edge="1" parent="1" source="J0o92Uok0DCxpGH_QRl3-22" target="J0o92Uok0DCxpGH_QRl3-28">
          <mxGeometry relative="1" as="geometry" />
        </mxCell>
        <mxCell id="J0o92Uok0DCxpGH_QRl3-22" value="View orders" style="ellipse;whiteSpace=wrap;html=1;" vertex="1" parent="1">
          <mxGeometry x="500" y="2590" width="120" height="80" as="geometry" />
        </mxCell>
        <mxCell id="J0o92Uok0DCxpGH_QRl3-23" style="rounded=0;orthogonalLoop=1;jettySize=auto;html=1;entryX=0;entryY=0.5;entryDx=0;entryDy=0;exitX=1;exitY=0.5;exitDx=0;exitDy=0;dashed=1;" edge="1" parent="1" source="J0o92Uok0DCxpGH_QRl3-24" target="J0o92Uok0DCxpGH_QRl3-15">
          <mxGeometry relative="1" as="geometry">
            <mxPoint x="610" y="2520" as="sourcePoint" />
            <mxPoint x="710" y="2560" as="targetPoint" />
          </mxGeometry>
        </mxCell>
        <mxCell id="J0o92Uok0DCxpGH_QRl3-85" value="&amp;lt;&amp;lt;Extend&amp;gt;&amp;gt;" style="edgeLabel;html=1;align=center;verticalAlign=middle;resizable=0;points=[];" connectable="0" vertex="1" parent="J0o92Uok0DCxpGH_QRl3-23">
          <mxGeometry x="-0.0095" y="-2" relative="1" as="geometry">
            <mxPoint x="1" as="offset" />
          </mxGeometry>
        </mxCell>
        <mxCell id="J0o92Uok0DCxpGH_QRl3-24" value="View&amp;nbsp;cart" style="ellipse;whiteSpace=wrap;html=1;" vertex="1" parent="1">
          <mxGeometry x="510" y="2460" width="120" height="80" as="geometry" />
        </mxCell>
        <mxCell id="J0o92Uok0DCxpGH_QRl3-26" value="Search" style="ellipse;whiteSpace=wrap;html=1;" vertex="1" parent="1">
          <mxGeometry x="555" y="2750" width="120" height="80" as="geometry" />
        </mxCell>
        <mxCell id="J0o92Uok0DCxpGH_QRl3-28" value="Review product" style="ellipse;whiteSpace=wrap;html=1;" vertex="1" parent="1">
          <mxGeometry x="740" y="2590" width="120" height="80" as="geometry" />
        </mxCell>
        <mxCell id="J0o92Uok0DCxpGH_QRl3-33" value="Login" style="ellipse;whiteSpace=wrap;html=1;" vertex="1" parent="1">
          <mxGeometry x="610" y="2280" width="120" height="80" as="geometry" />
        </mxCell>
        <mxCell id="J0o92Uok0DCxpGH_QRl3-37" value="" style="endArrow=classic;html=1;rounded=0;entryX=0.5;entryY=0;entryDx=0;entryDy=0;dashed=1;" edge="1" parent="1" source="J0o92Uok0DCxpGH_QRl3-15" target="J0o92Uok0DCxpGH_QRl3-28">
          <mxGeometry width="50" height="50" relative="1" as="geometry">
            <mxPoint x="1020" y="2680" as="sourcePoint" />
            <mxPoint x="1070" y="2630" as="targetPoint" />
          </mxGeometry>
        </mxCell>
        <mxCell id="J0o92Uok0DCxpGH_QRl3-38" value="Remove Product" style="ellipse;whiteSpace=wrap;html=1;" vertex="1" parent="1">
          <mxGeometry x="10" y="2430" width="120" height="80" as="geometry" />
        </mxCell>
        <mxCell id="J0o92Uok0DCxpGH_QRl3-39" value="Ban users" style="ellipse;whiteSpace=wrap;html=1;" vertex="1" parent="1">
          <mxGeometry x="240" y="2040" width="120" height="80" as="geometry" />
        </mxCell>
        <mxCell id="J0o92Uok0DCxpGH_QRl3-42" value="Verify products" style="ellipse;whiteSpace=wrap;html=1;" vertex="1" parent="1">
          <mxGeometry x="240" y="2170" width="120" height="80" as="geometry" />
        </mxCell>
        <mxCell id="DwWwWQou5JMYpuXKU6Zy-4" style="rounded=0;orthogonalLoop=1;jettySize=auto;html=1;exitX=0.5;exitY=1;exitDx=0;exitDy=0;entryX=0.5;entryY=0;entryDx=0;entryDy=0;dashed=1;" edge="1" parent="1" source="J0o92Uok0DCxpGH_QRl3-45" target="DwWwWQou5JMYpuXKU6Zy-1">
          <mxGeometry relative="1" as="geometry" />
        </mxCell>
        <mxCell id="DwWwWQou5JMYpuXKU6Zy-5" value="&amp;lt;&amp;lt;Inlude&amp;gt;&amp;gt;" style="edgeLabel;html=1;align=center;verticalAlign=middle;resizable=0;points=[];" vertex="1" connectable="0" parent="DwWwWQou5JMYpuXKU6Zy-4">
          <mxGeometry x="0.0163" y="-4" relative="1" as="geometry">
            <mxPoint y="-4" as="offset" />
          </mxGeometry>
        </mxCell>
        <mxCell id="J0o92Uok0DCxpGH_QRl3-45" value="&lt;div&gt;Payment&lt;/div&gt;" style="ellipse;whiteSpace=wrap;html=1;" vertex="1" parent="1">
          <mxGeometry x="960" y="2460" width="120" height="80" as="geometry" />
        </mxCell>
        <mxCell id="J0o92Uok0DCxpGH_QRl3-52" value="Buyers" style="shape=umlActor;verticalLabelPosition=bottom;verticalAlign=top;html=1;outlineConnect=0;" vertex="1" parent="1">
          <mxGeometry x="320" y="2390" width="30" height="60" as="geometry" />
        </mxCell>
        <mxCell id="J0o92Uok0DCxpGH_QRl3-56" value="" style="endArrow=classic;html=1;rounded=0;" edge="1" parent="1">
          <mxGeometry width="50" height="50" relative="1" as="geometry">
            <mxPoint x="160" y="2700" as="sourcePoint" />
            <mxPoint x="310" y="2470" as="targetPoint" />
          </mxGeometry>
        </mxCell>
        <mxCell id="J0o92Uok0DCxpGH_QRl3-61" style="rounded=0;orthogonalLoop=1;jettySize=auto;html=1;" edge="1" parent="1">
          <mxGeometry relative="1" as="geometry">
            <mxPoint x="170" y="2270" as="sourcePoint" />
            <mxPoint x="320" y="2390" as="targetPoint" />
          </mxGeometry>
        </mxCell>
        <mxCell id="J0o92Uok0DCxpGH_QRl3-62" value="" style="endArrow=classic;html=1;rounded=0;exitX=0.5;exitY=0;exitDx=0;exitDy=0;dashed=1;entryX=0.252;entryY=0.957;entryDx=0;entryDy=0;entryPerimeter=0;" edge="1" parent="1" source="J0o92Uok0DCxpGH_QRl3-20" target="J0o92Uok0DCxpGH_QRl3-64">
          <mxGeometry width="50" height="50" relative="1" as="geometry">
            <mxPoint x="525" y="2270" as="sourcePoint" />
            <mxPoint x="575" y="2220" as="targetPoint" />
          </mxGeometry>
        </mxCell>
        <mxCell id="J0o92Uok0DCxpGH_QRl3-63" value=",&amp;lt;&amp;lt;include&amp;gt;&amp;gt;" style="edgeLabel;html=1;align=center;verticalAlign=middle;resizable=0;points=[];" connectable="0" vertex="1" parent="J0o92Uok0DCxpGH_QRl3-62">
          <mxGeometry x="0.0109" y="4" relative="1" as="geometry">
            <mxPoint y="1" as="offset" />
          </mxGeometry>
        </mxCell>
        <mxCell id="J0o92Uok0DCxpGH_QRl3-64" value="Provide personal information" style="ellipse;whiteSpace=wrap;html=1;" vertex="1" parent="1">
          <mxGeometry x="515" y="2140" width="120" height="80" as="geometry" />
        </mxCell>
        <mxCell id="J0o92Uok0DCxpGH_QRl3-65" value="" style="endArrow=classic;html=1;rounded=0;exitX=0.5;exitY=0;exitDx=0;exitDy=0;dashed=1;entryX=1;entryY=1;entryDx=0;entryDy=0;" edge="1" parent="1" source="J0o92Uok0DCxpGH_QRl3-64" target="J0o92Uok0DCxpGH_QRl3-67">
          <mxGeometry width="50" height="50" relative="1" as="geometry">
            <mxPoint x="500" y="2150" as="sourcePoint" />
            <mxPoint x="460" y="2080" as="targetPoint" />
          </mxGeometry>
        </mxCell>
        <mxCell id="J0o92Uok0DCxpGH_QRl3-66" value=",&amp;lt;&amp;lt;include&amp;gt;&amp;gt;" style="edgeLabel;html=1;align=center;verticalAlign=middle;resizable=0;points=[];" connectable="0" vertex="1" parent="J0o92Uok0DCxpGH_QRl3-65">
          <mxGeometry x="0.0109" y="4" relative="1" as="geometry">
            <mxPoint y="1" as="offset" />
          </mxGeometry>
        </mxCell>
        <mxCell id="J0o92Uok0DCxpGH_QRl3-67" value="Username" style="ellipse;whiteSpace=wrap;html=1;" vertex="1" parent="1">
          <mxGeometry x="400" y="2000" width="120" height="80" as="geometry" />
        </mxCell>
        <mxCell id="J0o92Uok0DCxpGH_QRl3-68" value="" style="endArrow=classic;html=1;rounded=0;dashed=1;entryX=0.5;entryY=1;entryDx=0;entryDy=0;" edge="1" parent="1" target="J0o92Uok0DCxpGH_QRl3-70">
          <mxGeometry width="50" height="50" relative="1" as="geometry">
            <mxPoint x="575" y="2140" as="sourcePoint" />
            <mxPoint x="685" y="2070" as="targetPoint" />
          </mxGeometry>
        </mxCell>
        <mxCell id="J0o92Uok0DCxpGH_QRl3-69" value=",&amp;lt;&amp;lt;include&amp;gt;&amp;gt;" style="edgeLabel;html=1;align=center;verticalAlign=middle;resizable=0;points=[];" connectable="0" vertex="1" parent="J0o92Uok0DCxpGH_QRl3-68">
          <mxGeometry x="0.0109" y="4" relative="1" as="geometry">
            <mxPoint y="1" as="offset" />
          </mxGeometry>
        </mxCell>
        <mxCell id="J0o92Uok0DCxpGH_QRl3-70" value="Password" style="ellipse;whiteSpace=wrap;html=1;" vertex="1" parent="1">
          <mxGeometry x="545" y="2000" width="120" height="80" as="geometry" />
        </mxCell>
        <mxCell id="J0o92Uok0DCxpGH_QRl3-71" value="" style="endArrow=classic;html=1;rounded=0;dashed=1;entryX=0;entryY=1;entryDx=0;entryDy=0;exitX=0.5;exitY=0;exitDx=0;exitDy=0;" edge="1" parent="1" source="J0o92Uok0DCxpGH_QRl3-64" target="J0o92Uok0DCxpGH_QRl3-73">
          <mxGeometry width="50" height="50" relative="1" as="geometry">
            <mxPoint x="715" y="2140" as="sourcePoint" />
            <mxPoint x="825" y="2070" as="targetPoint" />
          </mxGeometry>
        </mxCell>
        <mxCell id="J0o92Uok0DCxpGH_QRl3-72" value=",&amp;lt;&amp;lt;include&amp;gt;&amp;gt;" style="edgeLabel;html=1;align=center;verticalAlign=middle;resizable=0;points=[];" connectable="0" vertex="1" parent="J0o92Uok0DCxpGH_QRl3-71">
          <mxGeometry x="0.0109" y="4" relative="1" as="geometry">
            <mxPoint y="1" as="offset" />
          </mxGeometry>
        </mxCell>
        <mxCell id="J0o92Uok0DCxpGH_QRl3-73" value="Display name" style="ellipse;whiteSpace=wrap;html=1;" vertex="1" parent="1">
          <mxGeometry x="685" y="2000" width="120" height="80" as="geometry" />
        </mxCell>
        <mxCell id="J0o92Uok0DCxpGH_QRl3-74" value="" style="endArrow=classic;html=1;rounded=0;dashed=1;entryX=0;entryY=0.5;entryDx=0;entryDy=0;exitX=1;exitY=0;exitDx=0;exitDy=0;" edge="1" parent="1" source="J0o92Uok0DCxpGH_QRl3-64" target="J0o92Uok0DCxpGH_QRl3-76">
          <mxGeometry width="50" height="50" relative="1" as="geometry">
            <mxPoint x="795" y="2230" as="sourcePoint" />
            <mxPoint x="905" y="2160" as="targetPoint" />
          </mxGeometry>
        </mxCell>
        <mxCell id="J0o92Uok0DCxpGH_QRl3-75" value=",&amp;lt;&amp;lt;include&amp;gt;&amp;gt;" style="edgeLabel;html=1;align=center;verticalAlign=middle;resizable=0;points=[];" connectable="0" vertex="1" parent="J0o92Uok0DCxpGH_QRl3-74">
          <mxGeometry x="0.0109" y="4" relative="1" as="geometry">
            <mxPoint y="1" as="offset" />
          </mxGeometry>
        </mxCell>
        <mxCell id="J0o92Uok0DCxpGH_QRl3-76" value="Email" style="ellipse;whiteSpace=wrap;html=1;" vertex="1" parent="1">
          <mxGeometry x="765" y="2090" width="120" height="80" as="geometry" />
        </mxCell>
        <mxCell id="J0o92Uok0DCxpGH_QRl3-79" value="" style="endArrow=classic;html=1;rounded=0;dashed=1;entryX=0;entryY=0.5;entryDx=0;entryDy=0;exitX=1;exitY=0.5;exitDx=0;exitDy=0;" edge="1" parent="1" source="J0o92Uok0DCxpGH_QRl3-33" target="J0o92Uok0DCxpGH_QRl3-81">
          <mxGeometry width="50" height="50" relative="1" as="geometry">
            <mxPoint x="1130" y="2250" as="sourcePoint" />
            <mxPoint x="1280" y="2162.3060453803123" as="targetPoint" />
          </mxGeometry>
        </mxCell>
        <mxCell id="J0o92Uok0DCxpGH_QRl3-80" value=",&amp;lt;&amp;lt;include&amp;gt;&amp;gt;" style="edgeLabel;html=1;align=center;verticalAlign=middle;resizable=0;points=[];" connectable="0" vertex="1" parent="J0o92Uok0DCxpGH_QRl3-79">
          <mxGeometry x="0.0109" y="4" relative="1" as="geometry">
            <mxPoint x="-3" y="4" as="offset" />
          </mxGeometry>
        </mxCell>
        <mxCell id="J0o92Uok0DCxpGH_QRl3-81" value="Verify password" style="ellipse;whiteSpace=wrap;html=1;" vertex="1" parent="1">
          <mxGeometry x="840" y="2279.9960453803124" width="120" height="80" as="geometry" />
        </mxCell>
        <mxCell id="J0o92Uok0DCxpGH_QRl3-86" value="" style="endArrow=none;html=1;rounded=0;exitX=0.5;exitY=0;exitDx=0;exitDy=0;" edge="1" parent="1" source="J0o92Uok0DCxpGH_QRl3-19">
          <mxGeometry width="50" height="50" relative="1" as="geometry">
            <mxPoint x="300" y="2740" as="sourcePoint" />
            <mxPoint x="340" y="2470" as="targetPoint" />
            <Array as="points" />
          </mxGeometry>
        </mxCell>
        <mxCell id="DwWwWQou5JMYpuXKU6Zy-1" value="Make order" style="ellipse;whiteSpace=wrap;html=1;" vertex="1" parent="1">
          <mxGeometry x="960" y="2600" width="120" height="80" as="geometry" />
        </mxCell>
        <mxCell id="J0o92Uok0DCxpGH_QRl3-97" value="" style="endArrow=none;html=1;rounded=0;entryX=0;entryY=0.5;entryDx=0;entryDy=0;" edge="1" parent="1" target="J0o92Uok0DCxpGH_QRl3-24">
          <mxGeometry width="50" height="50" relative="1" as="geometry">
            <mxPoint x="360" y="2420" as="sourcePoint" />
            <mxPoint x="530" y="2430" as="targetPoint" />
          </mxGeometry>
        </mxCell>
        <mxCell id="J0o92Uok0DCxpGH_QRl3-98" value="" style="endArrow=none;html=1;rounded=0;entryX=0;entryY=0;entryDx=0;entryDy=0;" edge="1" parent="1" target="J0o92Uok0DCxpGH_QRl3-26">
          <mxGeometry width="50" height="50" relative="1" as="geometry">
            <mxPoint x="360" y="2460" as="sourcePoint" />
            <mxPoint x="980" y="2650" as="targetPoint" />
          </mxGeometry>
        </mxCell>
        <mxCell id="J0o92Uok0DCxpGH_QRl3-99" value="" style="endArrow=none;html=1;rounded=0;entryX=0;entryY=0;entryDx=0;entryDy=0;" edge="1" parent="1" target="J0o92Uok0DCxpGH_QRl3-22">
          <mxGeometry width="50" height="50" relative="1" as="geometry">
            <mxPoint x="360" y="2440" as="sourcePoint" />
            <mxPoint x="980" y="2740" as="targetPoint" />
          </mxGeometry>
        </mxCell>
        <mxCell id="J0o92Uok0DCxpGH_QRl3-100" style="rounded=0;orthogonalLoop=1;jettySize=auto;html=1;entryX=0;entryY=0.5;entryDx=0;entryDy=0;exitX=1;exitY=0.5;exitDx=0;exitDy=0;dashed=1;" edge="1" parent="1" source="J0o92Uok0DCxpGH_QRl3-26" target="J0o92Uok0DCxpGH_QRl3-13">
          <mxGeometry relative="1" as="geometry">
            <mxPoint x="685" y="2430" as="sourcePoint" />
            <mxPoint x="795" y="2430" as="targetPoint" />
          </mxGeometry>
        </mxCell>
        <mxCell id="J0o92Uok0DCxpGH_QRl3-101" value="&amp;lt;&amp;lt;Include&amp;gt;&amp;gt;" style="edgeLabel;html=1;align=center;verticalAlign=middle;resizable=0;points=[];" connectable="0" vertex="1" parent="J0o92Uok0DCxpGH_QRl3-100">
          <mxGeometry x="-0.0095" y="-2" relative="1" as="geometry">
            <mxPoint x="1" as="offset" />
          </mxGeometry>
        </mxCell>
        <mxCell id="J0o92Uok0DCxpGH_QRl3-102" style="rounded=0;orthogonalLoop=1;jettySize=auto;html=1;entryX=0;entryY=0.5;entryDx=0;entryDy=0;exitX=1;exitY=0.5;exitDx=0;exitDy=0;dashed=1;" edge="1" parent="1" source="J0o92Uok0DCxpGH_QRl3-26" target="J0o92Uok0DCxpGH_QRl3-6">
          <mxGeometry relative="1" as="geometry">
            <mxPoint x="705" y="2610" as="sourcePoint" />
            <mxPoint x="770" y="2550" as="targetPoint" />
          </mxGeometry>
        </mxCell>
        <mxCell id="J0o92Uok0DCxpGH_QRl3-103" value="&amp;lt;&amp;lt;Include&amp;gt;&amp;gt;" style="edgeLabel;html=1;align=center;verticalAlign=middle;resizable=0;points=[];" connectable="0" vertex="1" parent="J0o92Uok0DCxpGH_QRl3-102">
          <mxGeometry x="-0.0095" y="-2" relative="1" as="geometry">
            <mxPoint x="1" as="offset" />
          </mxGeometry>
        </mxCell>
        <mxCell id="J0o92Uok0DCxpGH_QRl3-105" value="" style="endArrow=none;html=1;rounded=0;entryX=0;entryY=1;entryDx=0;entryDy=0;" edge="1" parent="1" target="J0o92Uok0DCxpGH_QRl3-20">
          <mxGeometry width="50" height="50" relative="1" as="geometry">
            <mxPoint x="350" y="2380" as="sourcePoint" />
            <mxPoint x="410" y="2330" as="targetPoint" />
          </mxGeometry>
        </mxCell>
        <mxCell id="J0o92Uok0DCxpGH_QRl3-106" value="" style="endArrow=none;html=1;rounded=0;entryX=0;entryY=0.5;entryDx=0;entryDy=0;" edge="1" parent="1" target="J0o92Uok0DCxpGH_QRl3-33">
          <mxGeometry width="50" height="50" relative="1" as="geometry">
            <mxPoint x="360" y="2390" as="sourcePoint" />
            <mxPoint x="540" y="2370" as="targetPoint" />
          </mxGeometry>
        </mxCell>
        <mxCell id="J0o92Uok0DCxpGH_QRl3-107" value="Logout" style="ellipse;whiteSpace=wrap;html=1;" vertex="1" parent="1">
          <mxGeometry x="600" y="2380" width="120" height="80" as="geometry" />
        </mxCell>
        <mxCell id="J0o92Uok0DCxpGH_QRl3-108" value="" style="endArrow=none;html=1;rounded=0;entryX=0;entryY=0.5;entryDx=0;entryDy=0;" edge="1" parent="1" target="J0o92Uok0DCxpGH_QRl3-107">
          <mxGeometry width="50" height="50" relative="1" as="geometry">
            <mxPoint x="360" y="2400" as="sourcePoint" />
            <mxPoint x="597" y="2324" as="targetPoint" />
          </mxGeometry>
        </mxCell>
        <mxCell id="J0o92Uok0DCxpGH_QRl3-109" value="" style="endArrow=none;html=1;rounded=0;exitX=0.5;exitY=0;exitDx=0;exitDy=0;" edge="1" parent="1" source="J0o92Uok0DCxpGH_QRl3-38">
          <mxGeometry width="50" height="50" relative="1" as="geometry">
            <mxPoint x="80" y="2390" as="sourcePoint" />
            <mxPoint x="140" y="2300" as="targetPoint" />
          </mxGeometry>
        </mxCell>
        <mxCell id="J0o92Uok0DCxpGH_QRl3-110" value="" style="endArrow=none;html=1;rounded=0;entryX=0.5;entryY=1;entryDx=0;entryDy=0;" edge="1" parent="1" target="J0o92Uok0DCxpGH_QRl3-38">
          <mxGeometry width="50" height="50" relative="1" as="geometry">
            <mxPoint x="135" y="2690" as="sourcePoint" />
            <mxPoint x="150" y="2580" as="targetPoint" />
          </mxGeometry>
        </mxCell>
        <mxCell id="J0o92Uok0DCxpGH_QRl3-111" value="" style="endArrow=none;html=1;rounded=0;entryX=0;entryY=1;entryDx=0;entryDy=0;" edge="1" parent="1" target="J0o92Uok0DCxpGH_QRl3-39">
          <mxGeometry width="50" height="50" relative="1" as="geometry">
            <mxPoint x="160" y="2200" as="sourcePoint" />
            <mxPoint x="180" y="2150" as="targetPoint" />
          </mxGeometry>
        </mxCell>
        <mxCell id="J0o92Uok0DCxpGH_QRl3-112" value="" style="endArrow=none;html=1;rounded=0;entryX=0;entryY=0.5;entryDx=0;entryDy=0;" edge="1" parent="1" target="J0o92Uok0DCxpGH_QRl3-42">
          <mxGeometry width="50" height="50" relative="1" as="geometry">
            <mxPoint x="160" y="2230" as="sourcePoint" />
            <mxPoint x="210" y="2190" as="targetPoint" />
          </mxGeometry>
        </mxCell>
        <mxCell id="J0o92Uok0DCxpGH_QRl3-113" value="" style="endArrow=none;html=1;rounded=0;entryX=0;entryY=0;entryDx=0;entryDy=0;" edge="1" parent="1" target="J0o92Uok0DCxpGH_QRl3-18">
          <mxGeometry width="50" height="50" relative="1" as="geometry">
            <mxPoint x="160" y="2760" as="sourcePoint" />
            <mxPoint x="230" y="2780" as="targetPoint" />
          </mxGeometry>
        </mxCell>
      </root>
    </mxGraphModel>
  </diagram>
</mxfile>
